<?xml version="1.0" encoding="utf-8"?>
<!-- Generator: Adobe Illustrator 16.0.0, SVG Export Plug-In . SVG Version: 6.00 Build 0)  -->
<!DOCTYPE svg PUBLIC "-//W3C//DTD SVG 1.1//EN" "http://www.w3.org/Graphics/SVG/1.1/DTD/svg11.dtd">
<svg version="1.1" id="Layer_1" xmlns="http://www.w3.org/2000/svg" xmlns:xlink="http://www.w3.org/1999/xlink" x="0px" y="0px"
	 width="1000px" height="280.087px" viewBox="0 0 1000 280.087" enable-background="new 0 0 1000 280.087" xml:space="preserve">
<g>
	<g>
		<path fill="#010202" d="M135.992,156.54h17.837v6.062c0,21.684-3.692,35.228-11.075,40.629
			c-7.385,5.403-25.959,8.103-55.726,8.103c-26.659,0-43.602-4.76-50.83-14.281c-7.228-9.52-10.842-31.924-10.842-67.21
			c0-27.59,0.816-44.942,2.448-52.054c1.632-7.111,6.295-13.465,13.99-19.061c9.015-6.529,28.484-9.793,58.408-9.793
			c20.285,0,33.943,3.147,40.979,9.443c7.033,6.295,10.551,18.46,10.551,36.49l0.116,4.313H134.01l-0.117-4.896
			c0-12.824-2.08-21.061-6.237-24.715c-4.159-3.652-13.543-5.479-28.155-5.479c-25.648,0-41.31,2.138-46.982,6.412
			c-5.674,4.275-8.511,16.128-8.511,35.558c0,44.691,1.904,70.882,5.713,78.577c3.807,7.694,16.826,11.542,39.055,11.542
			c21.14,0,34.333-1.67,39.58-5.013c5.247-3.341,7.87-11.735,7.87-25.182L135.992,156.54z"/>
		<path fill="#010202" d="M189.62,50.566v159.135h-16.322V50.566H189.62z"/>
		<path fill="#010202" d="M295.826,176.009h16.671l0.116,4.081c0,11.582-3.517,19.684-10.55,24.307
			c-7.035,4.625-19.373,6.937-37.015,6.937c-20.518,0-33.983-3.749-40.396-11.25c-6.412-7.5-9.618-23.258-9.618-47.274
			c0-22.227,3.224-37.149,9.676-44.768c6.45-7.616,19.08-11.425,37.889-11.425c20.519,0,33.964,3.304,40.337,9.909
			c6.372,6.607,9.56,20.519,9.56,41.736v8.744h-80.208c0,17.566,1.883,28.758,5.654,33.576c3.769,4.82,12.571,7.228,26.406,7.228
			c13.134,0,21.664-1.146,25.59-3.439c3.923-2.292,5.887-7.246,5.887-14.864V176.009z M295.826,144.299l-0.117-5.247
			c0-12.046-1.982-19.877-5.946-23.491c-3.963-3.614-12.514-5.421-25.648-5.421c-13.214,0-21.783,2.119-25.706,6.354
			c-3.926,4.237-5.888,13.505-5.888,27.805H295.826z"/>
		<path fill="#010202" d="M420.802,98.249l-37.307,111.453h-23.433L323.106,98.249h16.788l19.703,60.623l6.179,19.002l2.915,9.56
			l3.031,9.56h0.466l2.798-9.443l2.798-9.56l5.946-18.886l18.886-60.856H420.802z"/>
		<path fill="#010202" d="M511.852,176.009h16.672l0.117,4.081c0,11.582-3.518,19.684-10.551,24.307
			c-7.035,4.625-19.373,6.937-37.015,6.937c-20.518,0-33.983-3.749-40.396-11.25c-6.412-7.5-9.618-23.258-9.618-47.274
			c0-22.227,3.224-37.149,9.676-44.768c6.45-7.616,19.08-11.425,37.889-11.425c20.519,0,33.963,3.304,40.338,9.909
			c6.371,6.607,9.559,20.519,9.559,41.736v8.744h-80.208c0,17.566,1.883,28.758,5.654,33.576c3.769,4.82,12.571,7.228,26.406,7.228
			c13.134,0,21.664-1.146,25.589-3.439c3.924-2.292,5.887-7.246,5.887-14.864V176.009z M511.852,144.299l-0.115-5.247
			c0-12.046-1.982-19.877-5.945-23.491c-3.965-3.614-12.515-5.421-25.649-5.421c-13.214,0-21.783,2.119-25.706,6.354
			c-3.926,4.237-5.888,13.505-5.888,27.805H511.852z"/>
		<path fill="#010202" d="M555.92,98.249h16.322l-1.633,12.824l0.35,0.35c6.451-10.492,17.098-15.738,31.943-15.738
			c20.52,0,30.779,10.57,30.779,31.71l-0.117,7.695h-16.088l0.35-2.798c0.232-2.953,0.35-4.935,0.35-5.946
			c0-11.425-6.219-17.137-18.654-17.137c-18.186,0-27.279,11.232-27.279,33.692v66.802H555.92V98.249z"/>
		<path fill="#F2904D" d="M712.49,77.614v132.087h-30.193V77.614h-45.934V50.566h123.693v27.047H712.49z"/>
	</g>
	<g>
		<path fill="#F2904D" d="M772.141,130.542h-27.279c0-13.367,3.107-22.306,9.326-26.814c6.217-4.507,18.537-6.762,36.957-6.762
			c20.053,0,33.613,2.76,40.688,8.277c7.07,5.52,10.609,16.05,10.609,31.594v72.864h-26.697l1.281-15.272l-0.699-0.116
			c-5.129,11.115-16.982,16.671-35.557,16.671c-26.971,0-40.455-11.463-40.455-34.392c0-23.16,13.795-34.741,41.387-34.741
			c18.42,0,29.611,4.237,33.576,12.707h0.467v-18.07c0-8.704-1.516-14.475-4.547-17.312c-3.031-2.836-9.25-4.255-18.654-4.255
			C778.941,114.92,772.141,120.128,772.141,130.542z M789.979,159.804c-15.08,0-22.617,5.208-22.617,15.622
			c0,7.228,1.555,11.969,4.664,14.223c3.107,2.255,9.637,3.381,19.586,3.381c16.242,0,24.365-5.479,24.365-16.438
			C815.977,165.4,807.309,159.804,789.979,159.804z"/>
		<path fill="#F2904D" d="M869.021,98.249h27.164l-1.051,16.555l0.584,0.117c6.449-12.046,18.457-18.07,36.023-18.07
			c16.242,0,27.414,4.022,33.518,12.066c6.1,8.044,9.152,22.715,9.152,44.01c0,22.229-3.031,37.463-9.094,45.7
			c-6.062,8.239-17.295,12.357-33.693,12.357c-17.486,0-28.912-5.829-34.275-17.487h-0.465V257.5h-27.863V98.249z M921.6,117.951
			c-10.184,0-16.828,2.293-19.936,6.878c-3.109,4.586-4.664,14.301-4.664,29.146c0,14.456,1.672,24.056,5.014,28.795
			c3.34,4.742,10.143,7.112,20.402,7.112c10.414,0,17.176-2.253,20.285-6.762c3.107-4.507,4.662-14.183,4.662-29.029
			c0-15.232-1.572-25.065-4.721-29.495S932.48,117.951,921.6,117.951z"/>
	</g>
	<rect x="691.037" y="103.395" fill="#F2904D" width="11.684" height="25.04"/>
</g>
</svg>
